<!-- Generated by IcoMoon.io -->
<svg version="1.1" xmlns="http://www.w3.org/2000/svg" width="31" height="32" viewBox="0 0 31 32">
<title>1</title>
<path fill="#c7a17a" d="M8.572 12.778c0-1.467 1.126-2.656 2.513-2.656h-10.556v4.25l8.551-0.008c-0.315-0.444-0.508-0.988-0.508-1.585z"></path>
<path fill="#c7a17a" d="M19.631 9.591h11.059v5.313h-11.059v-5.313z"></path>
<path fill="#232c38" d="M21.988 3.566c-1.34-2.123-3.695-3.539-6.378-3.539s-5.038 1.416-6.378 3.539h-9.232v27.808h31.22v-27.808h-9.232zM15.61 1.038c3.609 0 6.546 2.949 6.546 6.573v1.011h8.057v8.090h-11.761c1.029-0.835 1.69-2.11 1.69-3.539v-4.55h-9.064v1.011c-1.666 0-3.021 1.361-3.021 3.034s1.355 3.034 3.021 3.034h0.766c0.255 0.382 0.568 0.722 0.923 1.011h-11.761v-8.090h8.057v-1.011c0-3.624 2.937-6.573 6.546-6.573zM10.071 17.723h11.078v2.022h-11.078v-2.022zM12.085 13.173v-3.539h7.050v3.539c0 1.952-1.581 3.539-3.525 3.539s-3.525-1.588-3.525-3.539zM11.078 14.689c-1.111 0-2.014-0.907-2.014-2.022s0.903-2.022 2.014-2.022v2.528c0 0.532 0.096 1.042 0.264 1.517h-0.264zM1.007 6.6h5.035v-1.011h-5.035v-1.011h7.685c-0.142 0.326-0.258 0.664-0.354 1.011h-1.288v1.011h1.082c-0.044 0.332-0.075 0.667-0.075 1.011h-7.050v-1.011zM1.007 17.723h8.057v12.64h-8.057v-12.64zM10.071 20.757h5.035v9.606h-5.035v-9.606zM16.113 20.757h5.035v9.606h-5.035v-9.606zM30.212 30.363h-8.057v-12.64h8.057v12.64zM23.088 6.6h1.082v-1.011h-1.288c-0.096-0.347-0.212-0.686-0.354-1.011h7.685v1.011h-5.035v1.011h5.035v1.011h-7.050c0-0.344-0.031-0.679-0.075-1.011z"></path>
<path fill="#232c38" d="M16.113 7.611h1.007v-0.892c0-0.505 0.279-0.958 0.729-1.184 0.793-0.398 1.286-1.198 1.286-2.088v-0.892h-1.007v0.892c0 0.505-0.279 0.958-0.729 1.184-0.793 0.398-1.286 1.198-1.286 2.088v0.892z"></path>
<path fill="#232c38" d="M14.099 6.719c0-0.505 0.28-0.958 0.729-1.184 0.793-0.398 1.286-1.198 1.286-2.088v-0.892h-1.007v0.892c0 0.505-0.28 0.958-0.729 1.184-0.793 0.398-1.286 1.198-1.286 2.088v0.892h1.007v-0.892z"></path>
<path fill="#232c38" d="M13.092 23.79h1.007v2.022h-1.007v-2.022z"></path>
<path fill="#232c38" d="M17.12 23.79h1.007v2.022h-1.007v-2.022z"></path>
</svg>
