<!-- Generated by IcoMoon.io -->
<svg version="1.1" xmlns="http://www.w3.org/2000/svg" width="32" height="32" viewBox="0 0 32 32">
<title>2</title>
<path fill="#c7a17a" d="M27.718 18.693c-0.574 1.198-1.803 2.028-3.229 2.028v-2.028h-17.378v2.028c-1.427 0-2.654-0.83-3.229-2.028h-1.882v11.155h27.6v-11.155h-1.882z"></path>
<path fill="#232c38" d="M28.485 16.579h1.526c0.841 0 1.526 0.682 1.526 1.52v12.159c0 0.838-0.685 1.52-1.526 1.52h-28.485c-0.841 0-1.526-0.682-1.526-1.52v-12.158c0-0.838 0.685-1.52 1.526-1.52h1.526v-0.507c0-1.649 1.032-3.129 2.543-3.744v-1.632c-1.511-0.615-2.543-2.095-2.543-3.744v-0.507c-1.683 0-3.052-1.363-3.052-3.040s1.369-3.040 3.052-3.040h25.433c1.683 0 3.052 1.363 3.052 3.040s-1.369 3.040-3.052 3.040v0.507c0 1.649-1.032 3.13-2.543 3.744v1.631c1.511 0.615 2.543 2.095 2.543 3.744v0.507zM24.924 20.083c1.442-0.242 2.543-1.494 2.543-2.998v-1.013c0-1.092-0.605-2.085-1.526-2.621v0.594c0 0.203-0.042 0.396-0.114 0.573 0.388 0.374 0.623 0.893 0.623 1.453v1.013c0 0.943-0.65 1.737-1.526 1.963v1.035zM8.139 6.447h-2.035v0.507c0 0.118 0.025 0.233 0.065 0.341 0.262-0.21 0.591-0.341 0.952-0.341s0.69 0.131 0.952 0.341c0.040-0.109 0.065-0.223 0.065-0.341v-0.507zM6.613 8.473v5.573c0 0.279 0.228 0.507 0.509 0.507s0.509-0.227 0.509-0.507v-5.573c0-0.279-0.228-0.507-0.509-0.507s-0.509 0.227-0.509 0.507zM8.63 8.296c0.002 0.017 0.004 0.034 0.007 0.051l0 0c0.006 0.042 0.011 0.083 0.011 0.126v1.101c0.921-0.536 1.526-1.528 1.526-2.621v-0.507h-1.017v0.507c0 0.499-0.195 0.974-0.526 1.343zM6.399 15.376c-0.179 0.185-0.295 0.428-0.295 0.696v0.507h2.035v-0.507c0-0.268-0.115-0.511-0.295-0.696-0.216 0.117-0.46 0.189-0.723 0.189s-0.507-0.072-0.723-0.189zM8.533 14.619c0.388 0.374 0.623 0.893 0.623 1.453v0.507h1.017v-0.507c0-1.092-0.605-2.084-1.526-2.621v0.594c0 0.203-0.042 0.396-0.114 0.573zM8.647 10.697v1.631c1.511 0.615 2.543 2.095 2.543 3.744v0.507h9.156v-0.507c0-1.649 1.032-3.13 2.543-3.744v-1.632c-1.511-0.615-2.543-2.095-2.543-3.744v-0.507h-9.156v0.507c0 1.649-1.032 3.129-2.543 3.744zM23.907 14.046c0 0.279 0.228 0.507 0.509 0.507s0.509-0.227 0.509-0.507v-5.573c0-0.279-0.228-0.507-0.509-0.507s-0.509 0.227-0.509 0.507v5.573zM25.368 7.295c0.040-0.109 0.065-0.223 0.065-0.341v-0.507h-2.035v0.507c0 0.118 0.025 0.233 0.065 0.341 0.262-0.21 0.591-0.341 0.952-0.341s0.69 0.131 0.952 0.341zM22.907 8.296c-0.331-0.369-0.526-0.843-0.526-1.343v-0.507h-1.017v0.507c0 1.092 0.605 2.084 1.526 2.621v-1.101c0-0.045 0.006-0.089 0.012-0.133 0.002-0.015 0.004-0.029 0.006-0.044zM22.89 13.451c-0.921 0.536-1.526 1.528-1.526 2.621v0.507h1.017v-0.507c0-0.56 0.235-1.079 0.623-1.453-0.073-0.177-0.114-0.37-0.114-0.573v-0.594zM23.398 16.072v0.507h2.035v-0.507c0-0.268-0.115-0.511-0.294-0.696-0.216 0.117-0.46 0.189-0.723 0.189s-0.507-0.072-0.723-0.189c-0.179 0.185-0.295 0.428-0.295 0.696zM25.942 9.574c0.921-0.536 1.526-1.528 1.526-2.621v-1.013c0-1.504-1.102-2.755-2.543-2.998v1.035c0.876 0.226 1.526 1.020 1.526 1.963v1.013c0 0.5-0.195 0.974-0.526 1.343 0.002 0.017 0.004 0.033 0.006 0.050l0 0 0 0c0.006 0.042 0.011 0.083 0.011 0.126v1.101zM1.018 3.407c0 1.118 0.913 2.026 2.035 2.026h0.035c0.252-1.996 1.963-3.546 4.034-3.546h0.509v3.040h-0.509c-0.375 0-0.699 0.205-0.876 0.507h19.046c-0.176-0.301-0.501-0.507-0.876-0.507h-0.509v-3.040h0.509c2.071 0 3.782 1.55 4.034 3.546h0.035c1.122 0 2.035-0.909 2.035-2.026s-0.913-2.026-2.035-2.026h-25.433c-1.122 0-2.035 0.909-2.035 2.026zM4.069 6.447v0.507c0 1.092 0.605 2.085 1.526 2.621v-1.101c0-0.045 0.006-0.088 0.012-0.132 0.002-0.015 0.004-0.030 0.006-0.044-0.331-0.37-0.526-0.844-0.526-1.343v-1.013c0-0.943 0.65-1.737 1.526-1.963v-1.035c-1.442 0.242-2.543 1.494-2.543 2.998v0.507zM4.069 16.072v1.013c0 1.504 1.102 2.755 2.543 2.998v-1.035c-0.876-0.226-1.526-1.020-1.526-1.963v-1.013c0-0.56 0.236-1.079 0.623-1.453-0.073-0.177-0.114-0.37-0.114-0.573v-0.594c-0.921 0.536-1.526 1.528-1.526 2.621zM30.011 30.763c0.28 0 0.509-0.227 0.509-0.507v-12.158c0-0.279-0.228-0.507-0.509-0.507h-1.561c-0.252 1.996-1.963 3.546-4.034 3.546h-0.509v-3.040h0.509c0.375 0 0.699-0.205 0.876-0.507h-19.046c0.177 0.301 0.501 0.507 0.876 0.507h0.509v3.040h-0.509c-2.071 0-3.782-1.55-4.034-3.546h-1.561c-0.28 0-0.509 0.227-0.509 0.507v12.158c0 0.279 0.228 0.507 0.509 0.507h28.485z"></path>
<path fill="#232c38" d="M16.592 20.401v0.002h0.002l-0.002-0.002z"></path>
<path fill="#232c38" d="M16.676 20.49c0.019 0.021 0.037 0.041 0.057 0.061 2.062-1.198 4.506-1.082 5.97 0.336 0.777 0.753 1.204 1.803 1.204 2.955 0 1.467-0.678 2.966-1.859 4.11-1.218 1.181-2.772 1.79-4.222 1.79-1.144 0-2.225-0.379-3.027-1.157l0.002-0.003c-0.192 0.023-0.386 0.038-0.582 0.038-1.451 0-3.004-0.609-4.222-1.79-1.181-1.145-1.859-2.644-1.859-4.111 0-1.153 0.428-2.202 1.204-2.955 1.818-1.763 5.070-1.478 7.249 0.634 0.030 0.029 0.057 0.059 0.085 0.089zM15.882 21.127c-1.024-0.993-2.321-1.511-3.51-1.511-0.7 0-1.357 0.187-1.905 0.553l6.391 6.196c0.375-0.516 0.575-1.146 0.575-1.854 0-1.196-0.565-2.429-1.55-3.385zM10.706 26.107c-0.986-0.955-1.55-2.189-1.55-3.385 0-0.708 0.199-1.338 0.575-1.853l6.393 6.198c-1.478 0.99-3.789 0.618-5.418-0.96zM16.034 28.262c1.481 0.898 3.718 0.504 5.305-1.034 0.986-0.955 1.551-2.189 1.55-3.385 0-0.708-0.199-1.338-0.575-1.854l-0.773 0.749-0.71-0.726 0.745-0.722c-1.117-0.744-2.731-0.72-4.177 0.059 0.638 0.913 1.002 1.951 1.040 2.982l1.785-1.731 0.71 0.726-2.742 2.658c-0.203 0.561-0.52 1.067-0.947 1.481-0.355 0.344-0.767 0.606-1.212 0.795z"></path>
<path fill="#232c38" d="M9.665 2.394h10.173v1.013h-10.173v-1.013z"></path>
<path fill="#232c38" d="M20.855 2.394h1.017v1.013h-1.017v-1.013z"></path>
</svg>
