<!-- Generated by IcoMoon.io -->
<svg version="1.1" xmlns="http://www.w3.org/2000/svg" width="31" height="32" viewBox="0 0 31 32">
<title>3</title>
<path fill="#c7a17a" d="M0.78 19.184h16.086v10.231h-16.086v-10.231z"></path>
<path fill="#c7a17a" d="M16.866 22.253h13.573v-11.254h-15.081v3.069h1.508v8.185z"></path>
<path fill="#151d28" d="M31.22 3.566c0 0.446-0.197 0.844-0.504 1.122v22.024c0.307 0.278 0.504 0.676 0.504 1.122v2.022c0 0.836-0.678 1.517-1.511 1.517h-14.603v-0.051c-0.163 0.033-0.331 0.051-0.504 0.051h-12.085c-1.388 0-2.518-1.134-2.518-2.528v-14.157c0-0.836 0.678-1.517 1.511-1.517h13.092v-8.484c-0.307-0.278-0.504-0.676-0.504-1.122v-2.022c0-0.836 0.678-1.517 1.511-1.517h14.099c0.833 0 1.511 0.681 1.511 1.517v2.022zM30.212 1.544c0-0.279-0.226-0.506-0.504-0.506h-2.014v3.034h2.014c0.277 0 0.504-0.227 0.504-0.506v-2.022zM18.631 1.038v3.034h2.014v-3.034h-2.014zM21.652 1.038v3.034h2.014v-3.034h-2.014zM26.688 1.038h-2.014v3.034h2.014v-3.034zM15.106 1.544v2.022c0 0.279 0.226 0.506 0.504 0.506h2.014v-3.034h-2.014c-0.277 0-0.504 0.227-0.504 0.506zM1.007 28.846c0 0.836 0.678 1.517 1.511 1.517h12.085c0.833 0 1.511-0.68 1.511-1.517v-11.629h-1.007v-1.011h1.007v-1.517c0-0.279-0.226-0.506-0.504-0.506h-14.099c-0.277 0-0.504 0.227-0.504 0.506v1.517h13.092v1.011h-13.092v11.629zM30.212 29.857v-2.022c0-0.279-0.226-0.506-0.504-0.506h-12.588v1.517c0 0.571-0.197 1.093-0.517 1.517h13.105c0.277 0 0.504-0.227 0.504-0.506zM17.12 26.318h12.588v-21.235h-14.099v8.090c0.833 0 1.511 0.681 1.511 1.517v11.629z"></path>
<path fill="#151d28" d="M21.666 20.244c1.163 0 2.446-0.535 3.464-1.557 1.751-1.758 2.068-4.302 0.705-5.67s-3.895-1.051-5.646 0.708c-1.751 1.758-2.067 4.302-0.705 5.669 0.57 0.573 1.345 0.85 2.182 0.85zM24.418 17.972c-1.187 1.192-2.785 1.585-3.815 1.014l4.825-4.845c0.568 1.035 0.177 2.639-1.010 3.831zM23.646 13.168c-0.895 0-1.919 0.442-2.746 1.273-1.187 1.193-1.578 2.796-1.010 3.831l4.819-4.839c-0.313-0.173-0.674-0.264-1.064-0.264z"></path>
<path fill="#151d28" d="M6.089 21.309c-1.751 1.758-2.068 4.302-0.705 5.67 0.57 0.573 1.345 0.85 2.182 0.85 1.163 0 2.446-0.535 3.464-1.557 1.751-1.758 2.068-4.302 0.705-5.67-1.362-1.369-3.895-1.051-5.646 0.707zM6.801 22.024c0.827-0.83 1.851-1.272 2.746-1.272 0.39 0 0.751 0.091 1.063 0.264l-4.819 4.839c-0.568-1.035-0.177-2.639 1.010-3.831zM6.504 26.57c1.031 0.571 2.628 0.178 3.815-1.014s1.578-2.796 1.010-3.831l-4.825 4.845z"></path>
</svg>
