<!-- Generated by IcoMoon.io -->
<svg version="1.1" xmlns="http://www.w3.org/2000/svg" width="32" height="32" viewBox="0 0 32 32">
<title>cart</title>
<path fill="#415167" d="M0 10.105h20.211v20.211h-20.211v-20.211z"></path>
<path fill="#f9fbff" d="M3.636 14.033h11.292c0.034 0 0.065 0.013 0.097 0.023l0.278-0.927c0.088-0.295 0.356-0.496 0.659-0.496h1.378c0.19 0 0.345 0.157 0.345 0.35v0.701c0 0.193-0.154 0.35-0.345 0.35h-0.868l-2.152 7.192 0.804 0.954c0.318 0.377 0.461 0.896 0.315 1.37-0.187 0.606-0.713 0.993-1.319 0.993h-9.87c-0.19 0-0.345-0.157-0.345-0.35v-0.701c0-0.194 0.154-0.35 0.345-0.35h9.87l-1.092-1.296c-0.027-0.033-0.048-0.069-0.068-0.106h-6.676c-0.534 0-1.020-0.314-1.247-0.805l-2.404-5.194c-0.069-0.15-0.105-0.315-0.105-0.48v-0.099c0-0.623 0.497-1.128 1.11-1.128z"></path>
<path fill="#fff" d="M13.624 27.79c-0.747 0-1.353-0.606-1.353-1.353s0.606-1.353 1.353-1.353c0.747 0 1.353 0.606 1.353 1.353s-0.606 1.353-1.353 1.353z"></path>
<path fill="#fff" d="M5.504 27.79c-0.747 0-1.353-0.606-1.353-1.353s0.606-1.353 1.353-1.353c0.747 0 1.353 0.606 1.353 1.353s-0.606 1.353-1.353 1.353z"></path>
<path fill="#c7a17a" d="M21.895 18.526c4.651 0 8.421-3.77 8.421-8.421s-3.77-8.421-8.421-8.421-8.421 3.77-8.421 8.421c0 4.651 3.77 8.421 8.421 8.421z"></path>
<path fill="#f9fbff" d="M24.869 13.526c0.102 0 0.185 0.031 0.248 0.094 0.063 0.055 0.094 0.13 0.094 0.224 0 0.212-0.114 0.318-0.342 0.318h-4.692c-0.11 0-0.196-0.031-0.259-0.094s-0.094-0.138-0.094-0.224c0-0.11 0.039-0.204 0.118-0.283l2.912-3.242c0.417-0.479 0.719-0.904 0.908-1.273s0.283-0.739 0.283-1.108c0-0.495-0.145-0.876-0.436-1.144-0.283-0.267-0.684-0.401-1.203-0.401-0.401 0-0.782 0.075-1.144 0.224-0.354 0.141-0.719 0.369-1.096 0.684-0.086 0.079-0.177 0.118-0.271 0.118-0.063 0-0.118-0.031-0.165-0.094s-0.071-0.138-0.071-0.224c0-0.134 0.051-0.248 0.153-0.342 0.314-0.307 0.703-0.55 1.167-0.731s0.939-0.271 1.427-0.271c0.731 0 1.309 0.193 1.733 0.578 0.424 0.377 0.637 0.9 0.637 1.568 0 0.479-0.11 0.943-0.33 1.391s-0.582 0.951-1.085 1.509l-2.488 2.723h3.997z"></path>
</svg>
