<!-- Generated by IcoMoon.io -->
<svg version="1.1" xmlns="http://www.w3.org/2000/svg" width="32" height="32" viewBox="0 0 32 32">
<title>coffee</title>
<path fill="#415167" d="M12.796 19.987c-1.799-3.063-1.804-6.247-1.621-7.729-4.215 2.006-6.738 6.312-5.040 10.173 1.999 0.199 4.802-0.407 6.661-2.444z"></path>
<path fill="#415167" d="M13.259 20.728c-1.642 1.742-4.462 2.725-6.614 2.595 1.965 2.838 7.193 4.086 11.901 1.347-2.016-0.49-3.918-1.919-5.287-3.943z"></path>
<path fill="#415167" d="M18.185 14.368c-2.816-3.119-3.050-6.096-2.663-8.050-2.91 1.668-4.33 5.944-3.19 10.303 1.272 4.982 5.793 8.752 10.034 6.854 0.132-1.399-0.043-4.54-4.181-9.107z"></path>
<path fill="#415167" d="M26.020 12.952c-1.293-4.965-5.61-8.396-9.541-7.071-0.574 1.867-0.493 4.87 2.348 7.928 1.289 1.516 4.475 5.108 4.415 9.176 2.612-1.837 3.832-5.892 2.778-10.034z"></path>
</svg>
