<!-- Generated by IcoMoon.io -->
<svg version="1.1" xmlns="http://www.w3.org/2000/svg" width="32" height="32" viewBox="0 0 32 32">
<title>mountain</title>
<path fill="#415167" d="M15.215 5.915c-0.128-0.221-0.406-0.329-0.619-0.351-0.255 0.004-0.487 0.147-0.607 0.373l-2.489 4.66 1.305 1.496 1.207-1.946c0.257-0.414 0.935-0.414 1.191 0l1.207 1.946 1.417-1.663-2.613-4.515z"></path>
<path fill="#415167" d="M19 12.477l-0.413-0.715-1.665 2.023c-0.137 0.19-0.337 0.314-0.593 0.29-0.233-0.008-0.446-0.133-0.57-0.333l-1.162-1.877-1.162 1.877c-0.124 0.2-0.337 0.324-0.57 0.333-0.009 0.001-0.018 0.001-0.026 0.001-0.224 0-0.435-0.108-0.567-0.291l-1.516-1.815-6.671 12.419c-0.117 0.22-0.111 0.486 0.016 0.7s0.356 0.346 0.604 0.346h7.92c-0.202-0.574-0.167-1.215 0.136-1.756l6.241-11.202z"></path>
<path fill="#415167" d="M21.561 13.043c-0.25-0.446-0.981-0.446-1.231 0l-1.471 2.626 2.086 2.29 2.086-2.29-1.471-2.626z"></path>
<path fill="#415167" d="M27.909 24.378l-4.18-7.412-2.267 2.54c-0.134 0.161-0.332 0.255-0.54 0.255s-0.406-0.094-0.54-0.255l-2.267-2.54-4.134 7.412c-0.123 0.22-0.121 0.488 0.006 0.706s0.357 0.351 0.607 0.351h12.703c0.25 0 0.481-0.134 0.607-0.351s0.128-0.486 0.006-0.706z"></path>
</svg>
